<?xml version="1.0" standalone="no"?>
<!DOCTYPE svg PUBLIC "-//W3C//DTD SVG 20010904//EN"
 "http://www.w3.org/TR/2001/REC-SVG-20010904/DTD/svg10.dtd">
<svg version="1.0" xmlns="http://www.w3.org/2000/svg"
 width="574.000000pt" height="574.000000pt" viewBox="0 0 574.000000 574.000000"
 preserveAspectRatio="xMidYMid meet">
<metadata>
Created by potrace 1.16, written by Peter Selinger 2001-2019
</metadata>
<g transform="translate(0.000000,574.000000) scale(0.100000,-0.100000)"
fill="#000000" stroke="none">
<path d="M620 5690 c0 -27 5 -50 10 -50 6 0 10 -40 10 -100 0 -60 -4 -100 -10
-100 -6 0 -10 -90 -10 -250 0 -160 4 -250 10 -250 7 0 10 -233 10 -680 0 -447
-3 -680 -10 -680 -6 0 -10 -50 -10 -130 0 -80 4 -130 10 -130 7 0 10 -200 10
-580 0 -380 -3 -580 -10 -580 -6 0 -10 -47 -10 -120 0 -73 4 -120 10 -120 6 0
10 -130 10 -370 l0 -370 2300 0 2300 0 0 2280 0 2280 -2310 0 -2310 0 0 -50z
m2460 -500 c0 -6 33 -10 80 -10 47 0 80 -4 80 -10 0 -5 23 -10 50 -10 28 0 50
-4 50 -10 0 -5 18 -10 40 -10 22 0 40 -4 40 -10 0 -5 18 -10 40 -10 22 0 40
-4 40 -10 0 -5 9 -10 20 -10 11 0 20 -4 20 -10 0 -5 14 -10 30 -10 17 0 30 -4
30 -10 0 -5 9 -10 20 -10 11 0 20 -4 20 -10 0 -5 9 -10 20 -10 11 0 20 -4 20
-10 0 -5 9 -10 20 -10 11 0 20 -4 20 -10 0 -5 13 -10 28 -10 16 0 34 -8 42
-20 8 -11 22 -20 32 -20 10 0 18 -4 18 -10 0 -5 8 -10 18 -10 10 0 24 -9 32
-20 8 -11 21 -20 28 -20 8 0 27 -13 42 -30 15 -16 33 -30 40 -30 6 0 29 -18
50 -40 21 -22 44 -40 50 -40 17 0 40 -26 40 -44 0 -9 7 -16 15 -16 18 0 65
-44 65 -60 0 -7 18 -29 40 -50 22 -21 40 -44 40 -50 0 -7 14 -25 30 -40 17
-15 30 -34 30 -42 0 -7 9 -20 20 -28 11 -8 20 -21 20 -30 0 -9 9 -22 20 -30
11 -8 20 -22 20 -32 0 -10 5 -18 10 -18 6 0 10 -9 10 -20 0 -11 5 -20 10 -20
6 0 10 -9 10 -20 0 -11 5 -20 10 -20 6 0 10 -9 10 -20 0 -11 5 -20 10 -20 6 0
10 -9 10 -20 0 -11 5 -20 10 -20 6 0 10 -13 10 -30 0 -16 5 -30 10 -30 6 0 10
-13 10 -30 0 -16 5 -30 10 -30 6 0 10 -13 10 -30 0 -16 5 -30 10 -30 6 0 10
-13 10 -30 0 -16 5 -30 10 -30 6 0 10 -22 10 -50 0 -27 5 -50 10 -50 6 0 10
-30 10 -70 0 -40 4 -70 10 -70 6 0 10 -73 10 -200 0 -127 -4 -200 -10 -200 -6
0 -10 -27 -10 -60 0 -33 -4 -60 -10 -60 -5 0 -10 -18 -10 -40 0 -22 -4 -40
-10 -40 -5 0 -10 -18 -10 -40 0 -22 -4 -40 -10 -40 -5 0 -10 -13 -10 -30 0
-16 -4 -30 -10 -30 -5 0 -10 -13 -10 -30 0 -16 -4 -30 -10 -30 -5 0 -10 -9
-10 -20 0 -11 -4 -20 -10 -20 -5 0 -10 -9 -10 -20 0 -11 -4 -20 -10 -20 -5 0
-10 -9 -10 -20 0 -11 -4 -20 -10 -20 -5 0 -10 -9 -10 -20 0 -11 -4 -20 -10
-20 -5 0 -10 -9 -10 -20 0 -11 -4 -20 -10 -20 -5 0 -10 -8 -10 -18 0 -10 -9
-24 -20 -32 -11 -8 -20 -22 -20 -32 0 -10 -4 -18 -10 -18 -5 0 -10 -7 -10 -16
0 -9 -13 -29 -30 -44 -16 -15 -30 -33 -30 -39 0 -7 -31 -43 -70 -81 -38 -38
-70 -74 -70 -80 0 -14 -46 -60 -60 -60 -6 0 -33 -22 -60 -50 -27 -27 -54 -50
-60 -50 -7 0 -25 -13 -40 -30 -15 -16 -34 -30 -42 -30 -7 0 -20 -9 -28 -20 -8
-11 -22 -20 -32 -20 -10 0 -18 -4 -18 -10 0 -5 -9 -10 -20 -10 -11 0 -20 -4
-20 -10 0 -5 -8 -10 -18 -10 -10 0 -24 -9 -32 -20 -8 -11 -22 -20 -32 -20 -10
0 -18 -4 -18 -10 0 -5 -13 -10 -30 -10 -16 0 -30 -4 -30 -10 0 -5 -9 -10 -20
-10 -11 0 -20 -4 -20 -10 0 -5 -13 -10 -30 -10 -16 0 -30 -4 -30 -10 0 -5 -13
-10 -30 -10 -16 0 -30 -4 -30 -10 0 -5 -13 -10 -30 -10 -16 0 -30 -4 -30 -10
0 -5 -18 -10 -40 -10 -22 0 -40 -4 -40 -10 0 -6 -27 -10 -60 -10 -33 0 -60 -4
-60 -10 0 -6 -37 -10 -90 -10 -53 0 -90 -4 -90 -10 0 -6 -30 -10 -70 -10 -40
0 -70 4 -70 10 0 6 -37 10 -90 10 -53 0 -90 4 -90 10 0 6 -27 10 -60 10 -33 0
-60 4 -60 10 0 6 -18 10 -40 10 -22 0 -40 5 -40 10 0 6 -13 10 -30 10 -16 0
-30 5 -30 10 0 6 -13 10 -30 10 -16 0 -30 5 -30 10 0 6 -13 10 -30 10 -16 0
-30 5 -30 10 0 6 -9 10 -20 10 -11 0 -20 5 -20 10 0 6 -9 10 -20 10 -11 0 -20
5 -20 10 0 6 -13 10 -28 10 -16 0 -34 8 -42 20 -8 11 -22 20 -32 20 -10 0 -18
5 -18 10 0 6 -9 10 -20 10 -11 0 -20 5 -20 10 0 6 -8 10 -18 10 -10 0 -24 9
-32 20 -8 11 -21 20 -28 20 -7 0 -31 18 -52 40 -21 22 -43 40 -49 40 -15 0
-261 246 -261 261 0 6 -18 28 -40 49 -22 21 -40 45 -40 52 0 7 -9 20 -20 28
-11 8 -20 22 -20 32 0 10 -4 18 -10 18 -5 0 -10 8 -10 18 0 10 -9 24 -20 32
-11 8 -20 22 -20 32 0 10 -4 18 -10 18 -5 0 -10 9 -10 20 0 11 -4 20 -10 20
-5 0 -10 14 -10 30 0 17 -4 30 -10 30 -5 0 -10 9 -10 20 0 11 -4 20 -10 20 -5
0 -10 9 -10 20 0 11 -4 20 -10 20 -5 0 -10 14 -10 30 0 17 -4 30 -10 30 -5 0
-10 18 -10 40 0 22 -4 40 -10 40 -5 0 -10 14 -10 30 0 17 -4 30 -10 30 -5 0
-10 23 -10 50 0 28 -4 50 -10 50 -6 0 -10 33 -10 80 0 47 -4 80 -10 80 -6 0
-10 60 -10 160 0 100 4 160 10 160 6 0 10 30 10 70 0 40 4 70 10 70 6 0 10 23
10 50 0 28 5 50 10 50 6 0 10 14 10 30 0 17 5 30 10 30 6 0 10 14 10 30 0 17
5 30 10 30 6 0 10 14 10 30 0 17 5 30 10 30 6 0 10 9 10 20 0 11 5 20 10 20 6
0 10 14 10 30 0 17 5 30 10 30 6 0 10 9 10 20 0 11 5 20 10 20 6 0 10 9 10 20
0 11 5 20 10 20 6 0 10 8 10 18 0 10 9 24 20 32 11 8 20 22 20 32 0 10 5 18
10 18 6 0 10 8 10 18 0 10 9 24 20 32 11 8 20 21 20 28 0 8 14 27 30 42 17 15
30 33 30 39 0 15 266 281 281 281 6 0 24 14 39 30 15 17 34 30 42 30 7 0 20 9
28 20 8 11 21 20 30 20 9 0 22 9 30 20 8 11 22 20 32 20 10 0 18 5 18 10 0 6
9 10 20 10 11 0 20 5 20 10 0 6 9 10 20 10 11 0 20 5 20 10 0 6 9 10 20 10 11
0 20 5 20 10 0 6 9 10 20 10 11 0 20 5 20 10 0 6 9 10 20 10 11 0 20 5 20 10
0 6 14 10 30 10 17 0 30 5 30 10 0 6 14 10 30 10 17 0 30 5 30 10 0 6 14 10
30 10 17 0 30 5 30 10 0 6 18 10 40 10 22 0 40 5 40 10 0 6 23 10 50 10 28 0
50 5 50 10 0 6 37 10 90 10 53 0 90 4 90 10 0 6 40 10 100 10 60 0 100 -4 100
-10z"/>
<path d="M2860 4430 c0 -6 -27 -10 -60 -10 -33 0 -60 -4 -60 -10 0 -5 -13 -10
-30 -10 -16 0 -30 -4 -30 -10 0 -5 -13 -10 -30 -10 -16 0 -30 -4 -30 -10 0 -5
-9 -10 -20 -10 -11 0 -20 -4 -20 -10 0 -5 -9 -10 -20 -10 -11 0 -20 -4 -20
-10 0 -5 -9 -10 -20 -10 -11 0 -20 -4 -20 -10 0 -5 -8 -10 -18 -10 -10 0 -24
-9 -32 -20 -8 -11 -20 -20 -27 -20 -17 0 -203 -186 -203 -203 0 -7 -9 -19 -20
-27 -11 -8 -20 -21 -20 -30 0 -9 -9 -22 -20 -30 -11 -8 -20 -22 -20 -32 0 -10
-4 -18 -10 -18 -5 0 -10 -9 -10 -20 0 -11 -4 -20 -10 -20 -5 0 -10 -13 -10
-30 0 -16 -4 -30 -10 -30 -5 0 -10 -13 -10 -30 0 -16 -4 -30 -10 -30 -5 0 -10
-18 -10 -40 0 -22 -4 -40 -10 -40 -6 0 -10 -67 -10 -180 0 -113 4 -180 10
-180 6 0 10 -18 10 -40 0 -22 5 -40 10 -40 6 0 10 -13 10 -30 0 -16 5 -30 10
-30 6 0 10 -13 10 -30 0 -16 5 -30 10 -30 6 0 10 -9 10 -20 0 -11 5 -20 10
-20 6 0 10 -8 10 -18 0 -10 9 -24 20 -32 11 -8 20 -22 20 -32 0 -10 5 -18 10
-18 6 0 10 -7 10 -15 0 -20 225 -245 245 -245 8 0 15 -4 15 -10 0 -5 8 -10 18
-10 10 0 24 -9 32 -20 8 -11 22 -20 32 -20 10 0 18 -4 18 -10 0 -5 9 -10 20
-10 11 0 20 -4 20 -10 0 -5 14 -10 30 -10 17 0 30 -4 30 -10 0 -5 18 -10 40
-10 22 0 40 -4 40 -10 0 -5 23 -10 50 -10 28 0 50 -4 50 -10 0 -6 50 -10 130
-10 80 0 130 4 130 10 0 6 27 10 60 10 33 0 60 4 60 10 0 6 14 10 30 10 17 0
30 5 30 10 0 6 14 10 30 10 17 0 30 5 30 10 0 6 9 10 20 10 11 0 20 5 20 10 0
6 9 10 20 10 11 0 20 5 20 10 0 6 8 10 18 10 10 0 24 9 32 20 8 11 21 20 28
20 8 0 27 14 42 30 15 17 33 30 39 30 15 0 121 106 121 121 0 6 14 24 30 39
17 15 30 35 30 44 0 9 5 16 10 16 6 0 10 8 10 18 0 10 9 24 20 32 11 8 20 22
20 32 0 10 5 18 10 18 6 0 10 14 10 30 0 17 5 30 10 30 6 0 10 14 10 30 0 17
5 30 10 30 6 0 10 14 10 30 0 17 5 30 10 30 6 0 10 27 10 60 0 33 4 60 10 60
6 0 10 37 10 90 0 53 -4 90 -10 90 -6 0 -10 27 -10 60 0 33 -4 60 -10 60 -5 0
-10 18 -10 40 0 22 -4 40 -10 40 -5 0 -10 14 -10 30 0 17 -4 30 -10 30 -5 0
-10 9 -10 20 0 11 -4 20 -10 20 -5 0 -10 9 -10 20 0 11 -4 20 -10 20 -5 0 -10
9 -10 20 0 11 -4 20 -10 20 -5 0 -10 8 -10 18 0 10 -9 24 -20 32 -11 8 -20 20
-20 28 0 7 -22 35 -50 62 -27 27 -50 56 -50 64 0 9 -7 16 -16 16 -8 0 -37 23
-64 50 -27 28 -56 50 -64 50 -9 0 -16 5 -16 10 0 6 -8 10 -18 10 -10 0 -24 9
-32 20 -8 12 -26 20 -42 20 -15 0 -28 5 -28 10 0 6 -9 10 -20 10 -11 0 -20 5
-20 10 0 6 -9 10 -20 10 -11 0 -20 5 -20 10 0 6 -18 10 -40 10 -22 0 -40 5
-40 10 0 6 -22 10 -50 10 -27 0 -50 5 -50 10 0 6 -47 10 -120 10 -73 0 -120
-4 -120 -10z m260 -220 c0 -5 18 -10 40 -10 22 0 40 -4 40 -10 0 -5 9 -10 20
-10 11 0 20 -4 20 -10 0 -5 14 -10 30 -10 17 0 30 -4 30 -10 0 -5 8 -10 18
-10 10 0 24 -9 32 -20 8 -11 21 -20 28 -20 7 0 31 -18 52 -40 21 -22 46 -40
54 -40 9 0 16 -7 16 -16 0 -8 18 -33 40 -54 22 -21 40 -45 40 -52 0 -7 9 -20
20 -28 12 -8 20 -26 20 -42 0 -15 5 -28 10 -28 6 0 10 -9 10 -20 0 -11 5 -20
10 -20 6 0 10 -13 10 -30 0 -16 5 -30 10 -30 6 0 10 -18 10 -40 0 -22 5 -40
10 -40 6 0 10 -50 10 -130 0 -80 -4 -130 -10 -130 -5 0 -10 -18 -10 -40 0 -22
-4 -40 -10 -40 -5 0 -10 -9 -10 -20 0 -11 -4 -20 -10 -20 -5 0 -10 -13 -10
-30 0 -16 -4 -30 -10 -30 -5 0 -10 -8 -10 -18 0 -10 -9 -24 -20 -32 -11 -8
-20 -21 -20 -28 0 -7 -18 -31 -40 -52 -22 -21 -40 -46 -40 -54 0 -9 -7 -16
-16 -16 -8 0 -33 -18 -54 -40 -21 -22 -45 -40 -52 -40 -7 0 -20 -9 -28 -20 -8
-11 -22 -20 -32 -20 -10 0 -18 -4 -18 -10 0 -5 -9 -10 -20 -10 -11 0 -20 -4
-20 -10 0 -5 -13 -10 -30 -10 -16 0 -30 -4 -30 -10 0 -5 -18 -10 -40 -10 -22
0 -40 -4 -40 -10 0 -6 -30 -10 -69 -10 -46 0 -71 -4 -75 -12 -5 -10 -7 -10
-12 0 -4 8 -29 12 -75 12 -39 0 -69 4 -69 10 0 6 -18 10 -40 10 -22 0 -40 5
-40 10 0 6 -13 10 -30 10 -16 0 -30 5 -30 10 0 6 -8 10 -18 10 -10 0 -24 9
-32 20 -8 11 -21 20 -30 20 -9 0 -22 9 -30 20 -8 11 -20 20 -27 20 -17 0 -163
146 -163 163 0 7 -9 19 -20 27 -11 8 -20 22 -20 32 0 10 -4 18 -10 18 -5 0
-10 9 -10 20 0 11 -4 20 -10 20 -5 0 -10 14 -10 30 0 17 -4 30 -10 30 -5 0
-10 14 -10 30 0 17 -4 30 -10 30 -6 0 -10 27 -10 60 0 33 -4 60 -10 60 -6 0
-10 30 -10 70 0 40 4 70 10 70 6 0 10 23 10 50 0 28 5 50 10 50 6 0 10 14 10
30 0 17 5 30 10 30 6 0 10 14 10 30 0 17 5 30 10 30 6 0 10 9 10 20 0 11 5 20
10 20 6 0 10 8 10 18 0 10 9 24 20 32 11 8 20 20 20 27 0 17 146 163 163 163
7 0 19 9 27 20 8 11 22 20 32 20 10 0 18 5 18 10 0 6 9 10 20 10 11 0 20 5 20
10 0 6 9 10 20 10 11 0 20 5 20 10 0 6 14 10 30 10 17 0 30 5 30 10 0 6 14 10
30 10 17 0 30 5 30 10 0 6 57 10 150 10 93 0 150 -4 150 -10z"/>
<path d="M2900 3830 c0 -5 -13 -10 -30 -10 -16 0 -30 -4 -30 -10 0 -5 -9 -10
-20 -10 -11 0 -20 -4 -20 -10 0 -5 -7 -10 -15 -10 -19 0 -85 -64 -85 -82 0 -8
-9 -20 -20 -28 -12 -8 -20 -26 -20 -42 0 -15 -4 -28 -10 -28 -6 0 -10 -40 -10
-100 0 -60 4 -100 10 -100 6 0 10 -9 10 -20 0 -11 5 -20 10 -20 6 0 10 -9 10
-20 0 -11 5 -20 10 -20 6 0 10 -7 10 -15 0 -20 65 -85 85 -85 8 0 15 -4 15
-10 0 -5 9 -10 20 -10 11 0 20 -4 20 -10 0 -5 14 -10 30 -10 17 0 30 -4 30
-10 0 -6 33 -10 80 -10 47 0 80 4 80 10 0 6 14 10 30 10 17 0 30 5 30 10 0 6
7 10 15 10 9 0 40 25 70 55 30 30 55 61 55 70 0 8 5 15 10 15 6 0 10 9 10 20
0 11 5 20 10 20 6 0 10 18 10 40 0 22 5 40 10 40 6 0 10 18 10 40 0 22 -4 40
-10 40 -5 0 -10 18 -10 40 0 22 -4 40 -10 40 -5 0 -10 9 -10 20 0 11 -4 20
-10 20 -5 0 -10 7 -10 15 0 9 -25 40 -55 70 -30 30 -61 55 -70 55 -8 0 -15 5
-15 10 0 6 -13 10 -30 10 -16 0 -30 5 -30 10 0 6 -33 10 -80 10 -47 0 -80 -4
-80 -10z"/>
<path d="M1773 985 c-9 -9 -13 -49 -13 -119 0 -74 4 -106 13 -109 6 -2 9 -8 5
-12 -5 -5 -16 2 -27 13 -10 12 -26 22 -35 22 -9 0 -16 5 -16 10 0 6 -27 10
-60 10 -33 0 -60 -4 -60 -10 0 -5 -11 -10 -25 -10 -29 0 -95 -59 -95 -85 0 -8
-4 -15 -10 -15 -5 0 -10 -18 -10 -40 0 -22 -4 -40 -10 -40 -6 0 -10 -33 -10
-80 0 -47 4 -80 10 -80 6 0 10 -18 10 -40 0 -22 5 -40 10 -40 6 0 10 -7 10
-15 0 -26 66 -85 95 -85 14 0 25 -4 25 -10 0 -5 23 -10 50 -10 28 0 50 5 50
10 0 6 12 10 26 10 15 0 35 10 45 22 l19 21 19 -21 c15 -18 29 -22 75 -22 l56
0 0 370 0 370 -67 0 c-46 -1 -72 -5 -80 -15z m-27 -339 c8 -8 14 -26 14 -40 0
-14 5 -26 10 -26 6 0 10 -30 10 -70 0 -40 -4 -70 -10 -70 -5 0 -10 -7 -10 -16
0 -30 -27 -44 -84 -44 -49 0 -56 2 -56 20 0 11 -4 20 -10 20 -5 0 -10 9 -10
20 0 11 -4 20 -10 20 -6 0 -10 27 -10 60 0 33 4 60 10 60 6 0 10 7 10 15 0 9
10 27 23 40 26 28 99 34 123 11z"/>
<path d="M2080 990 c0 -5 -7 -10 -16 -10 -27 0 -44 -27 -44 -70 0 -55 17 -70
80 -70 63 0 80 15 80 70 0 43 -17 70 -44 70 -9 0 -16 5 -16 10 0 6 -9 10 -20
10 -11 0 -20 -4 -20 -10z"/>
<path d="M560 950 c0 -5 -13 -10 -30 -10 -16 0 -30 -4 -30 -10 0 -5 -7 -10
-15 -10 -20 0 -125 -105 -125 -125 0 -8 -4 -15 -10 -15 -5 0 -10 -13 -10 -30
0 -16 -4 -30 -10 -30 -6 0 -10 -47 -10 -120 0 -73 4 -120 10 -120 6 0 10 -13
10 -30 0 -16 5 -30 10 -30 6 0 10 -9 10 -20 0 -11 5 -20 10 -20 6 0 10 -7 10
-15 0 -20 65 -85 85 -85 8 0 15 -4 15 -10 0 -5 14 -10 30 -10 17 0 30 -4 30
-10 0 -6 37 -10 90 -10 53 0 90 4 90 10 0 6 16 10 36 10 52 0 64 18 64 94 0
37 -4 66 -10 66 -5 0 -10 -4 -10 -10 0 -5 -18 -10 -40 -10 -22 0 -40 -4 -40
-10 0 -6 -30 -10 -70 -10 -40 0 -70 4 -70 10 0 6 -7 10 -16 10 -20 0 -44 24
-44 44 0 9 -4 16 -10 16 -5 0 -10 14 -10 30 0 17 -4 30 -10 30 -6 0 -10 33
-10 80 0 47 4 80 10 80 6 0 10 11 10 25 0 29 59 95 85 95 8 0 15 5 15 10 0 6
23 10 50 10 28 0 50 -4 50 -10 0 -5 14 -10 30 -10 17 0 30 -4 30 -10 0 -15 29
-12 46 4 8 8 14 22 14 30 0 9 5 16 10 16 6 0 10 18 10 40 0 33 -3 40 -20 40
-11 0 -20 5 -20 10 0 6 -13 10 -30 10 -16 0 -30 5 -30 10 0 6 -37 10 -90 10
-53 0 -90 -4 -90 -10z"/>
<path d="M3700 950 c0 -5 -11 -10 -25 -10 -17 0 -41 -15 -70 -45 -36 -36 -45
-51 -45 -80 0 -19 -4 -35 -10 -35 -5 0 -10 -9 -10 -20 0 -11 5 -20 10 -20 6 0
10 -17 10 -38 0 -26 6 -42 20 -52 11 -8 20 -22 20 -32 0 -11 7 -18 18 -18 10
0 24 -9 32 -20 8 -11 22 -20 32 -20 10 0 18 -4 18 -10 0 -5 9 -10 20 -10 11 0
20 -4 20 -10 0 -5 9 -10 20 -10 11 0 20 -4 20 -10 0 -5 7 -10 16 -10 26 0 44
-26 44 -64 0 -29 -4 -36 -20 -36 -11 0 -20 -4 -20 -10 0 -6 -27 -10 -60 -10
-33 0 -60 4 -60 10 0 6 -13 10 -30 10 -16 0 -30 5 -30 10 0 6 -13 10 -30 10
-16 0 -30 5 -30 10 0 6 -4 10 -10 10 -6 0 -10 -33 -10 -80 0 -73 2 -80 20 -80
11 0 20 -4 20 -10 0 -5 14 -10 30 -10 17 0 30 -4 30 -10 0 -6 37 -10 90 -10
53 0 90 4 90 10 0 6 16 10 35 10 29 0 44 9 80 45 25 24 45 51 45 60 0 8 5 15
10 15 6 0 10 30 10 70 0 40 -4 70 -10 70 -5 0 -10 7 -10 15 0 19 -64 85 -82
85 -8 0 -20 9 -28 20 -8 11 -22 20 -32 20 -10 0 -18 5 -18 10 0 6 -9 10 -20
10 -11 0 -20 5 -20 10 0 6 -7 10 -15 10 -18 0 -65 44 -65 60 0 6 11 22 25 35
20 21 34 25 80 25 30 0 55 -4 55 -10 0 -5 14 -10 30 -10 17 0 30 -4 30 -10 0
-5 9 -10 20 -10 16 0 20 7 20 30 0 17 5 30 10 30 6 0 10 9 10 20 0 11 5 20 10
20 6 0 10 9 10 20 0 16 -7 20 -30 20 -16 0 -30 5 -30 10 0 6 -13 10 -30 10
-16 0 -30 5 -30 10 0 6 -37 10 -90 10 -53 0 -90 -4 -90 -10z"/>
<path d="M1060 790 c0 -5 -13 -10 -30 -10 -16 0 -30 -4 -30 -10 0 -5 -7 -10
-15 -10 -20 0 -65 -45 -65 -65 0 -8 -4 -15 -10 -15 -5 0 -10 -9 -10 -20 0 -11
-4 -20 -10 -20 -6 0 -10 -43 -10 -110 0 -67 4 -110 10 -110 6 0 10 -13 10 -28
0 -16 8 -34 20 -42 11 -8 20 -22 20 -32 0 -11 7 -18 18 -18 10 0 24 -9 32 -20
8 -12 26 -20 42 -20 15 0 28 -4 28 -10 0 -6 33 -10 80 -10 47 0 80 4 80 10 0
6 9 10 20 10 11 0 20 5 20 10 0 6 7 10 15 10 20 0 85 65 85 85 0 8 5 15 10 15
6 0 10 18 10 40 0 22 5 40 10 40 6 0 10 27 10 60 0 33 -4 60 -10 60 -5 0 -10
18 -10 40 0 22 -4 40 -10 40 -5 0 -10 7 -10 15 0 20 -65 85 -85 85 -8 0 -15 5
-15 10 0 6 -9 10 -20 10 -11 0 -20 5 -20 10 0 6 -33 10 -80 10 -47 0 -80 -4
-80 -10z m135 -155 c14 -13 25 -36 25 -50 0 -14 5 -25 10 -25 6 0 10 -18 10
-40 0 -22 -4 -40 -10 -40 -5 0 -10 -11 -10 -25 0 -14 -11 -37 -25 -50 -42 -43
-135 -29 -135 19 0 9 -4 16 -10 16 -6 0 -10 33 -10 80 0 47 4 80 10 80 6 0 10
7 10 15 0 28 24 44 68 45 33 0 49 -6 67 -25z"/>
<path d="M2520 790 c0 -5 -12 -10 -26 -10 -15 0 -35 -10 -45 -22 l-19 -21 -19
21 c-15 18 -29 22 -75 22 l-56 0 0 -260 0 -260 80 0 80 0 0 170 c0 107 4 170
10 170 6 0 10 7 10 16 0 27 27 44 70 44 43 0 70 -17 70 -44 0 -9 5 -16 10 -16
6 0 10 -63 10 -170 l0 -170 80 0 80 0 0 190 c0 120 -4 190 -10 190 -5 0 -10
14 -10 30 0 17 -4 30 -10 30 -5 0 -10 7 -10 15 0 25 -46 65 -75 65 -14 0 -25
5 -25 10 0 6 -27 10 -60 10 -33 0 -60 -4 -60 -10z"/>
<path d="M2980 790 c0 -5 -13 -10 -30 -10 -16 0 -30 -4 -30 -10 0 -5 -7 -10
-16 -10 -20 0 -44 -24 -44 -44 0 -9 -4 -16 -10 -16 -5 0 -10 -13 -10 -30 0
-16 -4 -30 -10 -30 -5 0 -10 -13 -10 -30 0 -16 5 -30 10 -30 6 0 10 -13 10
-30 0 -16 5 -30 10 -30 6 0 10 -9 10 -20 0 -13 7 -20 20 -20 11 0 20 -4 20 -8
0 -4 -9 -14 -20 -22 -16 -12 -20 -26 -20 -71 0 -37 4 -59 12 -61 17 -6 -14
-38 -36 -38 -9 0 -16 -8 -16 -20 0 -11 -4 -20 -10 -20 -5 0 -10 -9 -10 -20 0
-11 -4 -20 -10 -20 -5 0 -10 -9 -10 -20 0 -11 5 -20 10 -20 6 0 10 -11 10 -25
0 -40 61 -95 105 -95 19 0 35 -4 35 -10 0 -6 37 -10 90 -10 53 0 90 4 90 10 0
6 18 10 40 10 22 0 40 5 40 10 0 6 7 10 15 10 20 0 85 65 85 85 0 8 5 15 10
15 6 0 10 28 10 65 0 62 -2 68 -35 100 -21 22 -44 35 -60 35 -14 0 -25 5 -25
10 0 6 -43 10 -110 10 -103 0 -110 1 -110 20 0 18 7 20 70 20 40 0 70 4 70 10
0 6 13 10 28 10 16 0 34 8 42 20 8 11 22 20 32 20 11 0 18 7 18 20 0 11 5 20
10 20 6 0 10 18 10 39 0 22 6 42 13 45 10 5 10 7 0 12 -7 3 -13 19 -13 35 0
22 5 29 20 29 11 0 20 5 20 10 0 6 9 10 20 10 17 0 20 7 20 40 l0 40 -100 0
c-60 0 -100 4 -100 10 0 6 -33 10 -80 10 -47 0 -80 -4 -80 -10z m115 -115 c50
-49 18 -155 -45 -155 -62 0 -94 105 -47 155 29 31 62 31 92 0z m71 -449 c20
-20 18 -33 -11 -61 -22 -22 -32 -25 -105 -25 -87 0 -110 10 -110 50 0 41 19
49 118 50 68 0 97 -4 108 -14z"/>
<path d="M4180 790 c0 -5 -13 -10 -30 -10 -16 0 -30 -4 -30 -10 0 -5 -9 -10
-20 -10 -16 0 -20 -7 -20 -30 0 -16 5 -30 10 -30 6 0 10 -7 10 -16 0 -8 6 -22
14 -30 17 -16 46 -19 46 -4 0 6 14 10 30 10 17 0 30 5 30 10 0 6 18 10 40 10
22 0 40 -4 40 -10 0 -5 9 -10 20 -10 16 0 20 -7 20 -30 0 -28 -2 -30 -40 -30
-22 0 -40 -4 -40 -10 0 -6 -27 -10 -60 -10 -33 0 -60 -4 -60 -10 0 -5 -9 -10
-20 -10 -11 0 -20 -4 -20 -10 0 -5 -7 -10 -16 -10 -20 0 -44 -24 -44 -44 0 -9
-4 -16 -10 -16 -6 0 -10 -30 -10 -70 0 -40 4 -70 10 -70 6 0 10 -7 10 -15 0
-20 45 -65 65 -65 8 0 15 -4 15 -10 0 -6 30 -10 70 -10 40 0 70 4 70 10 0 6
13 10 28 10 16 0 34 8 42 20 19 26 50 26 50 0 0 -18 7 -20 60 -20 l60 0 0 210
c0 133 -4 210 -10 210 -5 0 -10 7 -10 15 0 26 -66 85 -95 85 -14 0 -25 5 -25
10 0 6 -37 10 -90 10 -53 0 -90 -4 -90 -10z m160 -336 c0 -47 -16 -74 -44 -74
-9 0 -16 -4 -16 -10 0 -5 -11 -10 -25 -10 -26 0 -75 39 -75 60 0 25 49 60 85
60 19 0 35 5 35 10 0 6 9 10 20 10 17 0 20 -7 20 -46z"/>
<path d="M4700 790 c0 -5 -11 -10 -25 -10 -29 0 -95 -59 -95 -85 0 -8 -4 -15
-10 -15 -6 0 -10 -30 -10 -70 0 -40 4 -70 10 -70 6 0 10 -8 10 -18 0 -10 9
-24 20 -32 11 -8 20 -21 20 -30 0 -9 -9 -22 -20 -30 -14 -10 -20 -26 -20 -52
0 -21 5 -38 10 -38 20 0 9 -33 -20 -60 -16 -15 -30 -35 -30 -44 0 -9 -4 -16
-10 -16 -5 0 -10 -22 -10 -50 0 -27 5 -50 10 -50 6 0 10 -7 10 -16 0 -20 24
-44 44 -44 9 0 16 -4 16 -10 0 -5 14 -10 30 -10 17 0 30 -4 30 -10 0 -6 40
-10 100 -10 60 0 100 4 100 10 0 6 14 10 30 10 17 0 30 5 30 10 0 6 9 10 20
10 11 0 20 5 20 10 0 6 7 10 15 10 25 0 65 46 65 75 0 14 5 25 10 25 6 0 10
18 10 40 0 22 -4 40 -10 40 -5 0 -10 12 -10 26 0 29 -21 54 -44 54 -9 0 -16 5
-16 10 0 6 -9 10 -20 10 -11 0 -20 5 -20 10 0 6 -43 10 -110 10 -103 0 -110 1
-110 20 0 18 7 20 60 20 33 0 60 4 60 10 0 6 14 10 30 10 17 0 30 5 30 10 0 6
7 10 15 10 20 0 65 45 65 65 0 8 5 15 10 15 6 0 10 27 10 60 0 33 -4 60 -10
60 -5 0 -10 5 -10 10 0 6 9 10 20 10 11 0 20 5 20 10 0 6 9 10 20 10 17 0 20
7 20 40 l0 40 -100 0 c-60 0 -100 4 -100 10 0 6 -33 10 -80 10 -47 0 -80 -4
-80 -10z m100 -100 c0 -5 9 -10 20 -10 18 0 20 -7 20 -70 0 -63 -2 -70 -20
-70 -11 0 -20 -4 -20 -10 0 -5 -9 -10 -20 -10 -11 0 -20 5 -20 10 0 6 -9 10
-20 10 -18 0 -20 7 -20 70 0 63 2 70 20 70 11 0 20 5 20 10 0 6 9 10 20 10 11
0 20 -4 20 -10z m100 -490 c0 -33 -3 -40 -20 -40 -11 0 -20 -4 -20 -10 0 -6
-35 -10 -86 -10 -91 0 -114 10 -114 50 0 42 18 49 133 50 l107 0 0 -40z"/>
<path d="M5240 790 c0 -5 -11 -10 -25 -10 -29 0 -115 -79 -115 -105 0 -8 -4
-15 -10 -15 -5 0 -10 -9 -10 -20 0 -11 -4 -20 -10 -20 -6 0 -10 -40 -10 -100
0 -60 4 -100 10 -100 6 0 10 -9 10 -20 0 -11 5 -20 10 -20 6 0 10 -7 10 -15 0
-20 65 -85 85 -85 8 0 15 -4 15 -10 0 -5 14 -10 30 -10 17 0 30 -4 30 -10 0
-6 37 -10 90 -10 53 0 90 4 90 10 0 6 12 10 26 10 40 0 54 22 54 84 0 49 -2
56 -20 56 -11 0 -20 -4 -20 -10 0 -5 -18 -10 -40 -10 -22 0 -40 -4 -40 -10 0
-5 -22 -10 -50 -10 -27 0 -50 5 -50 10 0 6 -7 10 -16 10 -20 0 -44 24 -44 44
0 9 -4 16 -10 16 -5 0 -10 9 -10 20 0 19 7 20 170 20 l170 0 0 70 c0 40 -4 70
-10 70 -5 0 -10 14 -10 30 0 17 -4 30 -10 30 -5 0 -10 7 -10 15 0 20 -45 65
-65 65 -8 0 -15 5 -15 10 0 6 -13 10 -30 10 -16 0 -30 5 -30 10 0 6 -30 10
-70 10 -40 0 -70 -4 -70 -10z"/>
<path d="M2020 520 l0 -260 80 0 80 0 0 260 0 260 -80 0 -80 0 0 -260z"/>
</g>
</svg>
